<?xml version="1.0" standalone="no"?>
<!DOCTYPE svg PUBLIC "-//W3C//DTD SVG 20010904//EN"
 "http://www.w3.org/TR/2001/REC-SVG-20010904/DTD/svg10.dtd">
<svg version="1.0" xmlns="http://www.w3.org/2000/svg"
 width="288.000000pt" height="288.000000pt" viewBox="0 0 288.000000 288.000000"
 preserveAspectRatio="xMidYMid meet">
<metadata>
Created by potrace 1.11, written by Peter Selinger 2001-2013
</metadata>
<g transform="translate(0.000000,288.000000) scale(0.100000,-0.100000)"
fill="#000000" stroke="none">
<path d="M1250 2850 c0 -30 -1 -30 -55 -30 -52 0 -55 -1 -55 -25 0 -24 -3 -25
-55 -25 -54 0 -55 0 -55 -30 0 -27 -3 -30 -30 -30 -25 0 -30 -4 -30 -25 0 -21
-5 -25 -30 -25 -27 0 -30 -3 -30 -30 0 -25 -4 -30 -25 -30 -24 0 -25 -3 -25
-55 0 -54 0 -55 -30 -55 -30 0 -30 -1 -30 -55 0 -52 -1 -55 -25 -55 -20 0 -25
-5 -25 -25 0 -21 -5 -25 -30 -25 -30 0 -30 -1 -30 -55 0 -52 -1 -55 -25 -55
-21 0 -25 -5 -25 -30 0 -27 -3 -30 -30 -30 -27 0 -30 -3 -30 -30 0 -25 -4 -30
-25 -30 -20 0 -25 -5 -25 -25 0 -21 -5 -25 -30 -25 -27 0 -30 -3 -30 -30 0
-30 -1 -30 -55 -30 -52 0 -55 -1 -55 -25 l0 -25 -110 0 -110 0 0 -30 c0 -27 3
-30 30 -30 25 0 30 -4 30 -25 0 -24 3 -25 55 -25 54 0 55 0 55 -30 l0 -30 300
0 300 0 0 -25 c0 -24 -3 -25 -55 -25 -54 0 -55 0 -55 -30 0 -30 -1 -30 -55
-30 -52 0 -55 -1 -55 -25 0 -24 -3 -25 -55 -25 -54 0 -55 0 -55 -30 0 -25 -4
-30 -25 -30 -20 0 -25 -5 -25 -25 0 -21 -5 -25 -30 -25 l-30 0 0 -115 0 -115
30 0 30 0 0 -80 c0 -79 0 -80 25 -80 24 0 25 -3 25 -55 0 -54 0 -55 30 -55
l30 0 0 -170 0 -170 -30 0 c-25 0 -30 -4 -30 -25 0 -25 -1 -25 -80 -25 -79 0
-80 0 -80 25 0 20 5 25 25 25 21 0 25 5 25 30 0 27 3 30 30 30 27 0 30 3 30
30 0 27 -3 30 -30 30 -25 0 -30 4 -30 25 0 20 -5 25 -25 25 -20 0 -25 -5 -25
-25 0 -21 -5 -25 -30 -25 -27 0 -30 -3 -30 -30 0 -27 3 -30 30 -30 27 0 30 -3
30 -30 0 -27 -3 -30 -30 -30 -30 0 -30 -1 -30 -55 0 -52 -1 -55 -25 -55 -21 0
-25 5 -25 30 0 27 -3 30 -30 30 -25 0 -30 4 -30 25 0 20 -5 25 -25 25 -20 0
-25 -5 -25 -25 0 -20 5 -25 25 -25 21 0 25 -5 25 -30 0 -27 3 -30 30 -30 30 0
30 -1 30 -55 l0 -55 -85 0 c-84 0 -85 0 -85 -25 0 -21 5 -25 30 -25 27 0 30
-3 30 -30 0 -25 4 -30 25 -30 20 0 25 -5 25 -25 0 -21 5 -25 30 -25 27 0 30
-3 30 -30 0 -25 4 -30 25 -30 21 0 25 5 25 30 0 27 3 30 30 30 27 0 30 -3 30
-30 0 -25 4 -30 25 -30 20 0 25 -5 25 -25 0 -21 5 -25 30 -25 25 0 30 4 30 25
0 20 5 25 25 25 20 0 25 -5 25 -25 0 -21 5 -25 30 -25 27 0 30 -3 30 -30 0
-30 1 -30 55 -30 52 0 55 -1 55 -25 0 -20 5 -25 25 -25 20 0 25 5 25 25 0 24
3 25 55 25 52 0 55 -1 55 -25 0 -24 3 -25 60 -25 l60 0 0 -30 c0 -25 4 -30 25
-30 21 0 25 5 25 30 l0 30 110 0 110 0 0 -30 0 -30 220 0 220 0 0 30 c0 30 1
30 55 30 54 0 55 0 55 -30 0 -27 3 -30 30 -30 27 0 30 3 30 30 l0 30 110 0
110 0 0 25 c0 21 5 25 30 25 25 0 30 -4 30 -25 0 -20 5 -25 25 -25 20 0 25 5
25 25 0 21 5 25 30 25 30 0 30 1 30 55 0 52 1 55 25 55 20 0 25 -5 25 -25 0
-24 3 -25 55 -25 52 0 55 1 55 25 0 20 -5 25 -25 25 -21 0 -25 5 -25 30 l0 30
80 0 c79 0 80 0 80 25 0 21 5 25 30 25 27 0 30 3 30 30 l0 30 -85 0 c-84 0
-85 0 -85 25 0 21 5 25 30 25 27 0 30 3 30 30 0 25 4 30 25 30 20 0 25 5 25
25 0 21 5 25 30 25 27 0 30 3 30 30 0 25 4 30 25 30 20 0 25 5 25 25 0 20 -5
25 -25 25 -21 0 -25 5 -25 30 0 27 -3 30 -30 30 -27 0 -30 -3 -30 -30 0 -25
-4 -30 -25 -30 -20 0 -25 -5 -25 -25 0 -20 5 -25 25 -25 21 0 25 -5 25 -30 0
-30 -1 -30 -55 -30 -54 0 -55 0 -55 30 0 25 -4 30 -25 30 -25 0 -25 1 -25 85
l0 85 -30 0 c-25 0 -30 4 -30 25 0 25 -1 25 -80 25 l-80 0 0 30 c0 30 -1 30
-55 30 l-55 0 0 165 0 165 -30 0 c-30 0 -30 1 -30 55 0 52 -1 55 -25 55 -20 0
-25 5 -25 25 0 21 -5 25 -30 25 l-30 0 0 60 0 60 -30 0 -30 0 0 80 0 80 30 0
30 0 0 85 0 85 30 0 30 0 0 80 c0 79 0 80 25 80 24 0 25 -3 25 -55 0 -54 0
-55 30 -55 25 0 30 -4 30 -25 0 -20 5 -25 25 -25 l25 0 0 220 0 220 -25 0
c-24 0 -25 3 -25 55 0 54 0 55 -30 55 -27 0 -30 3 -30 30 0 25 -4 30 -25 30
-24 0 -25 3 -25 55 0 54 0 55 -30 55 -30 0 -30 1 -30 55 0 54 0 55 -30 55 -25
0 -30 4 -30 25 0 20 -5 25 -25 25 -21 0 -25 5 -25 30 0 30 -1 30 -55 30 -52 0
-55 1 -55 25 0 24 -3 25 -55 25 -54 0 -55 0 -55 30 l0 30 -165 0 -165 0 0 -30z
m160 -465 c0 -54 0 -55 30 -55 25 0 30 4 30 25 0 20 5 25 25 25 21 0 25 5 25
30 l0 30 85 0 85 0 0 -55 c0 -52 1 -55 25 -55 20 0 25 5 25 25 0 21 5 25 30
25 25 0 30 -4 30 -25 0 -20 5 -25 25 -25 20 0 25 5 25 25 0 24 3 25 60 25 57
0 60 -1 60 -25 0 -20 5 -25 25 -25 l25 0 0 -115 0 -115 -25 0 c-24 0 -25 3
-25 60 l0 60 -30 0 c-30 0 -30 1 -30 55 0 54 0 55 -30 55 l-30 0 0 -85 c0 -84
0 -85 -25 -85 -21 0 -25 5 -25 30 0 27 -3 30 -30 30 l-30 0 0 -60 0 -60 -55 0
c-52 0 -55 -1 -55 -25 0 -24 3 -25 55 -25 54 0 55 0 55 -30 0 -30 -1 -30 -55
-30 l-55 0 0 -55 c0 -52 -1 -55 -25 -55 -24 0 -25 -3 -25 -55 0 -52 1 -55 25
-55 21 0 25 5 25 30 0 27 3 30 30 30 25 0 30 4 30 25 0 20 5 25 25 25 24 0 25
-3 25 -55 0 -52 -1 -55 -25 -55 -20 0 -25 -5 -25 -25 0 -21 -5 -25 -30 -25
-27 0 -30 -3 -30 -30 0 -25 -4 -30 -25 -30 -20 0 -25 -5 -25 -25 l0 -25 -110
0 -110 0 0 25 c0 21 -5 25 -30 25 -27 0 -30 3 -30 30 0 25 -4 30 -25 30 -20 0
-25 5 -25 25 0 21 -5 25 -30 25 l-30 0 0 85 0 85 30 0 c30 0 30 -1 30 -55 l0
-55 55 0 c52 0 55 1 55 25 0 20 5 25 25 25 25 0 25 1 25 85 l0 85 55 0 c52 0
55 1 55 25 0 24 3 25 55 25 54 0 55 0 55 30 0 27 3 30 30 30 27 0 30 3 30 30
0 30 -1 30 -55 30 -54 0 -55 0 -55 -30 0 -30 -1 -30 -55 -30 -54 0 -55 0 -55
30 0 27 -3 30 -30 30 -27 0 -30 -3 -30 -30 0 -30 -1 -30 -55 -30 -54 0 -55 0
-55 -30 0 -25 -4 -30 -25 -30 -21 0 -25 5 -25 30 0 27 -3 30 -30 30 l-30 0 0
85 0 85 30 0 c25 0 30 4 30 25 0 20 5 25 25 25 21 0 25 5 25 30 0 30 1 30 55
30 l55 0 0 -55z m-500 -255 l0 -30 60 0 60 0 0 -55 c0 -54 0 -55 -30 -55 -25
0 -30 -4 -30 -25 0 -21 5 -25 30 -25 27 0 30 -3 30 -30 0 -27 -3 -30 -30 -30
-27 0 -30 3 -30 30 0 27 -3 30 -30 30 -25 0 -30 4 -30 25 0 20 -5 25 -25 25
-21 0 -25 5 -25 30 0 27 -3 30 -30 30 -25 0 -30 4 -30 25 0 20 -5 25 -25 25
-21 0 -25 5 -25 30 l0 30 80 0 80 0 0 -30z m280 -55 c0 -20 -5 -25 -25 -25
-20 0 -25 5 -25 25 0 20 5 25 25 25 20 0 25 -5 25 -25z m720 0 c0 -21 -5 -25
-30 -25 -25 0 -30 4 -30 25 0 21 5 25 30 25 25 0 30 -4 30 -25z m-330 -550 c0
-20 5 -25 25 -25 21 0 25 -5 25 -30 0 -30 1 -30 55 -30 54 0 55 0 55 30 0 30
1 30 55 30 l55 0 0 -60 c0 -57 -1 -60 -25 -60 -20 0 -25 -5 -25 -25 0 -21 -5
-25 -30 -25 -30 0 -30 -1 -30 -55 0 -54 0 -55 30 -55 27 0 30 -3 30 -30 0 -30
-1 -30 -55 -30 -54 0 -55 0 -55 30 0 30 -1 30 -55 30 -54 0 -55 0 -55 -30 0
-27 -3 -30 -30 -30 -30 0 -30 1 -30 55 0 54 0 55 30 55 27 0 30 3 30 30 0 27
-3 30 -30 30 l-30 0 0 110 0 110 30 0 c25 0 30 -4 30 -25z m-170 -55 c0 -25
-4 -30 -25 -30 -21 0 -25 5 -25 30 0 25 4 30 25 30 21 0 25 -5 25 -30z m500
-170 c0 -27 -3 -30 -30 -30 -27 0 -30 3 -30 30 0 27 3 30 30 30 27 0 30 -3 30
-30z m-610 -195 c0 -52 -1 -55 -25 -55 -24 0 -25 3 -25 55 0 52 1 55 25 55 24
0 25 -3 25 -55z m110 0 c0 -54 0 -55 30 -55 27 0 30 3 30 30 0 25 4 30 25 30
25 0 25 -1 25 -85 l0 -85 30 0 c27 0 30 3 30 30 0 25 4 30 25 30 21 0 25 -5
25 -30 0 -25 -4 -30 -25 -30 -20 0 -25 -5 -25 -25 0 -21 -5 -25 -30 -25 -25 0
-30 4 -30 25 0 24 -3 25 -55 25 -54 0 -55 0 -55 30 0 25 -4 30 -25 30 -25 0
-25 1 -25 80 0 79 0 80 25 80 24 0 25 -3 25 -55z m610 0 c0 -52 -1 -55 -25
-55 -20 0 -25 -5 -25 -25 0 -21 -5 -25 -30 -25 -27 0 -30 -3 -30 -30 0 -27 -3
-30 -30 -30 -25 0 -30 -4 -30 -25 0 -20 -5 -25 -25 -25 -20 0 -25 5 -25 25 0
21 -5 25 -30 25 -30 0 -30 1 -30 55 0 54 0 55 30 55 25 0 30 -4 30 -25 0 -20
5 -25 25 -25 24 0 25 3 25 55 0 54 0 55 30 55 27 0 30 -3 30 -30 0 -27 3 -30
30 -30 30 0 30 1 30 55 0 52 1 55 25 55 24 0 25 -3 25 -55z m-940 -80 c0 -21
5 -25 30 -25 27 0 30 -3 30 -30 0 -27 -3 -30 -30 -30 -25 0 -30 -4 -30 -25 0
-24 3 -25 55 -25 54 0 55 0 55 -30 0 -27 3 -30 30 -30 25 0 30 -4 30 -25 0
-21 -5 -25 -30 -25 -27 0 -30 -3 -30 -30 l0 -30 -80 0 -80 0 0 30 c0 27 -3 30
-30 30 l-30 0 0 110 0 110 30 0 c25 0 30 4 30 25 0 20 5 25 25 25 20 0 25 -5
25 -25z m-610 -275 c0 -25 -4 -30 -25 -30 -21 0 -25 5 -25 30 0 25 4 30 25 30
21 0 25 -5 25 -30z m1830 0 c0 -25 4 -30 25 -30 25 0 25 -1 25 -85 0 -84 0
-85 -25 -85 -20 0 -25 -5 -25 -25 0 -21 -5 -25 -30 -25 -27 0 -30 -3 -30 -30
0 -25 -4 -30 -25 -30 -20 0 -25 -5 -25 -25 0 -21 -5 -25 -30 -25 -27 0 -30 -3
-30 -30 0 -25 -4 -30 -25 -30 -24 0 -25 3 -25 55 0 54 0 55 -30 55 -30 0 -30
1 -30 55 0 54 0 55 30 55 27 0 30 3 30 30 0 25 4 30 25 30 20 0 25 5 25 25 0
24 3 25 55 25 54 0 55 0 55 30 0 25 -4 30 -25 30 -21 0 -25 5 -25 30 0 30 1
30 55 30 54 0 55 0 55 -30z m-1550 -115 c0 -20 5 -25 25 -25 21 0 25 -5 25
-30 0 -25 -4 -30 -25 -30 -20 0 -25 -5 -25 -25 0 -21 -5 -25 -30 -25 -25 0
-30 4 -30 25 0 20 -5 25 -25 25 -21 0 -25 5 -25 30 0 25 4 30 25 30 20 0 25 5
25 25 0 21 5 25 30 25 25 0 30 -4 30 -25z m1880 0 c0 -21 -5 -25 -30 -25 -25
0 -30 4 -30 25 0 21 5 25 30 25 25 0 30 -4 30 -25z m-1440 -55 c0 -27 3 -30
30 -30 25 0 30 -4 30 -25 0 -24 3 -25 55 -25 l55 0 0 -55 c0 -54 0 -55 -30
-55 -27 0 -30 -3 -30 -30 0 -25 -4 -30 -25 -30 -20 0 -25 -5 -25 -25 0 -21 -5
-25 -30 -25 -25 0 -30 4 -30 25 0 25 -1 25 -80 25 l-80 0 0 30 c0 27 -3 30
-30 30 l-30 0 0 110 0 110 110 0 110 0 0 -30z m-660 -110 c0 -25 4 -30 25 -30
20 0 25 -5 25 -25 0 -20 -5 -25 -25 -25 -21 0 -25 -5 -25 -30 0 -27 -3 -30
-30 -30 -27 0 -30 3 -30 30 0 25 -4 30 -25 30 -20 0 -25 5 -25 25 0 20 5 25
25 25 21 0 25 5 25 30 0 27 3 30 30 30 27 0 30 -3 30 -30z m-170 -55 c0 -20
-5 -25 -25 -25 -20 0 -25 5 -25 25 0 20 5 25 25 25 20 0 25 -5 25 -25z m2050
0 c0 -20 5 -25 25 -25 21 0 25 -5 25 -30 0 -25 -4 -30 -25 -30 -20 0 -25 -5
-25 -25 0 -21 -5 -25 -30 -25 -25 0 -30 4 -30 25 0 20 -5 25 -25 25 -21 0 -25
5 -25 30 0 25 4 30 25 30 20 0 25 5 25 25 0 21 5 25 30 25 25 0 30 -4 30 -25z
m-1550 -110 c0 -21 -5 -25 -30 -25 -25 0 -30 4 -30 25 0 21 5 25 30 25 25 0
30 -4 30 -25z m-220 -55 c0 -27 -3 -30 -30 -30 -27 0 -30 3 -30 30 0 27 3 30
30 30 27 0 30 -3 30 -30z m990 -55 c0 -21 5 -25 30 -25 27 0 30 -3 30 -30 0
-27 -3 -30 -30 -30 -25 0 -30 -4 -30 -25 0 -20 -5 -25 -25 -25 -20 0 -25 5
-25 25 0 21 -5 25 -30 25 -27 0 -30 3 -30 30 0 27 3 30 30 30 25 0 30 4 30 25
0 20 5 25 25 25 20 0 25 -5 25 -25z m340 0 c0 -21 -5 -25 -30 -25 -25 0 -30 4
-30 25 0 21 5 25 30 25 25 0 30 -4 30 -25z"/>
<path d="M1360 2300 c0 -27 -3 -30 -30 -30 -25 0 -30 -4 -30 -25 0 -20 -5 -25
-25 -25 -21 0 -25 -5 -25 -30 0 -25 4 -30 25 -30 21 0 25 5 25 30 0 27 3 30
30 30 25 0 30 4 30 25 0 20 5 25 25 25 21 0 25 5 25 30 0 25 -4 30 -25 30 -21
0 -25 -5 -25 -30z"/>
<path d="M1470 2245 c0 -20 5 -25 25 -25 20 0 25 5 25 25 0 20 -5 25 -25 25
-20 0 -25 -5 -25 -25z"/>
<path d="M1690 2245 c0 -20 5 -25 25 -25 20 0 25 5 25 25 0 20 -5 25 -25 25
-20 0 -25 -5 -25 -25z"/>
<path d="M1410 1690 c0 -30 1 -30 55 -30 54 0 55 0 55 30 0 30 -1 30 -55 30
-54 0 -55 0 -55 -30z"/>
<path d="M860 2075 c0 -20 5 -25 25 -25 21 0 25 -5 25 -30 0 -27 3 -30 30 -30
27 0 30 3 30 30 0 27 -3 30 -30 30 -25 0 -30 4 -30 25 0 20 -5 25 -25 25 -20
0 -25 -5 -25 -25z"/>
<path d="M690 580 c0 -27 3 -30 30 -30 27 0 30 3 30 30 0 27 -3 30 -30 30 -27
0 -30 -3 -30 -30z"/>
<path d="M470 415 c0 -21 5 -25 30 -25 25 0 30 4 30 25 0 21 -5 25 -30 25 -25
0 -30 -4 -30 -25z"/>
<path d="M2350 360 c0 -27 3 -30 30 -30 27 0 30 3 30 30 0 27 -3 30 -30 30
-27 0 -30 -3 -30 -30z"/>
<path d="M1580 140 c0 -25 4 -30 25 -30 21 0 25 5 25 30 0 25 -4 30 -25 30
-21 0 -25 -5 -25 -30z"/>
<path d="M2460 750 c0 -27 3 -30 30 -30 27 0 30 3 30 30 0 27 -3 30 -30 30
-27 0 -30 -3 -30 -30z"/>
<path d="M2680 305 c0 -21 5 -25 30 -25 25 0 30 4 30 25 0 21 -5 25 -30 25
-25 0 -30 -4 -30 -25z"/>
<path d="M140 250 c0 -27 3 -30 30 -30 27 0 30 3 30 30 0 27 -3 30 -30 30 -27
0 -30 -3 -30 -30z"/>
</g>
</svg>
