<?xml version="1.0" standalone="no"?>
<!DOCTYPE svg PUBLIC "-//W3C//DTD SVG 20010904//EN"
 "http://www.w3.org/TR/2001/REC-SVG-20010904/DTD/svg10.dtd">
<svg version="1.0" xmlns="http://www.w3.org/2000/svg"
 width="1689.000000pt" height="1689.000000pt" viewBox="0 0 1689.000000 1689.000000"
 preserveAspectRatio="xMidYMid meet">
<metadata>
Created by potrace 1.11, written by Peter Selinger 2001-2013
</metadata>
<g transform="translate(0.000000,1689.000000) scale(0.100000,-0.100000)"
fill="#000000" stroke="none">
<path d="M8345 16794 c-91 -87 -346 -333 -640 -615 -60 -59 -140 -135 -176
-170 -37 -35 -153 -147 -259 -249 -106 -102 -218 -209 -249 -239 -31 -29 -150
-145 -266 -256 -115 -112 -235 -226 -265 -255 -50 -48 -364 -349 -499 -480
-69 -66 -458 -440 -546 -525 -35 -33 -154 -148 -265 -255 -112 -107 -224 -215
-250 -240 -62 -60 -423 -406 -515 -495 -66 -63 -409 -394 -526 -505 -25 -25
-140 -135 -254 -245 -114 -110 -236 -227 -270 -260 -35 -33 -152 -145 -260
-250 -108 -104 -220 -212 -249 -239 -58 -55 -424 -407 -526 -506 -37 -36 -154
-149 -261 -251 -107 -103 -234 -226 -284 -273 -101 -98 -405 -389 -501 -481
-107 -103 -434 -418 -485 -467 l-48 -46 42 -45 c23 -25 146 -153 273 -284 127
-131 258 -267 292 -303 34 -35 167 -172 295 -304 127 -132 252 -261 277 -287
25 -25 145 -149 267 -275 121 -126 249 -258 283 -294 55 -58 187 -194 652
-674 69 -72 162 -168 205 -212 43 -45 177 -184 298 -309 121 -125 256 -265
300 -311 78 -81 466 -483 555 -574 129 -133 516 -533 566 -586 98 -102 573
-594 742 -767 l86 -88 1280 427 1281 426 175 -58 c96 -32 177 -59 180 -60 3 0
12 -3 20 -7 8 -3 60 -20 115 -37 55 -18 109 -36 120 -41 11 -4 65 -22 120 -40
55 -17 109 -35 120 -40 11 -4 396 -133 855 -285 459 -152 840 -279 845 -281
14 -5 23 5 550 552 62 64 454 470 555 574 41 43 179 185 305 316 127 131 257
266 290 300 69 71 477 493 586 607 41 42 165 170 275 285 111 114 232 240 269
278 37 39 167 173 289 298 121 126 250 259 286 297 36 37 165 170 286 296 122
126 252 261 290 300 38 40 169 175 290 300 122 126 252 261 290 300 138 143
480 497 527 545 26 26 47 53 47 59 0 7 -15 26 -32 42 -18 17 -127 121 -242
232 -115 110 -230 221 -256 246 -26 25 -143 137 -260 250 -117 113 -227 219
-245 235 -37 35 -446 429 -619 596 -67 64 -146 140 -176 169 -30 29 -143 137
-250 241 -107 103 -220 212 -251 241 -31 29 -148 141 -260 250 -112 108 -238
228 -279 268 -41 39 -160 154 -265 255 -104 101 -217 209 -250 240 -33 32
-152 146 -265 255 -113 109 -230 221 -260 250 -30 29 -148 142 -263 253 -114
110 -235 227 -270 259 -34 33 -151 146 -261 252 -109 105 -221 213 -250 239
-46 44 -249 240 -604 582 -75 72 -161 155 -192 185 -320 307 -460 442 -503
483 -27 26 -107 102 -177 170 -104 101 -366 353 -600 577 -26 25 -143 137
-260 250 -117 113 -232 223 -255 245 -23 22 -64 61 -91 87 l-49 47 -100 -95z"/>
<path d="M8428 4175 c-2 -2 -21 -6 -43 -9 -22 -4 -47 -8 -55 -11 -8 -2 -32 -6
-54 -10 -21 -3 -41 -7 -45 -9 -3 -2 -22 -7 -41 -10 -19 -3 -114 -21 -210 -41
-96 -19 -184 -37 -195 -39 -44 -9 -181 -36 -201 -40 -12 -2 -38 -7 -59 -10
-20 -4 -41 -8 -45 -11 -4 -2 -22 -7 -41 -9 -28 -4 -197 -37 -259 -51 -8 -2
-118 -24 -245 -49 -126 -25 -241 -47 -255 -50 -42 -9 -79 -17 -210 -43 -114
-22 -151 -30 -157 -32 -1 -1 20 -40 47 -87 28 -47 50 -87 50 -89 0 -2 19 -36
43 -77 24 -40 46 -80 50 -88 4 -8 15 -28 26 -45 19 -31 289 -506 334 -587 26
-48 63 -109 85 -143 6 -11 15 -27 19 -35 3 -8 30 -55 58 -105 29 -49 64 -110
77 -135 14 -25 145 -256 293 -515 147 -259 296 -519 330 -580 80 -141 77 -135
245 -430 79 -137 152 -266 162 -285 10 -19 23 -42 28 -50 12 -18 235 -410 263
-462 12 -21 21 -37 22 -35 5 6 182 316 350 612 103 182 196 345 206 363 64
112 473 830 509 892 23 41 54 95 68 120 14 25 87 153 162 285 75 132 271 476
435 765 164 289 322 566 351 615 55 95 55 99 -1 108 -16 3 -111 22 -210 42
-99 20 -189 38 -200 40 -11 1 -54 10 -95 18 -41 9 -86 18 -100 21 -14 2 -70
14 -125 25 -55 11 -111 22 -125 24 -14 3 -72 15 -130 27 -58 12 -116 23 -130
26 -14 2 -47 9 -75 14 -27 6 -61 12 -75 15 -48 9 -135 27 -160 32 -14 4 -34 8
-45 10 -11 2 -97 19 -191 38 -93 19 -185 37 -202 40 -18 3 -65 12 -105 21 -83
18 -124 24 -129 19z"/>
</g>
</svg>
